<svg width="120" height="119" viewBox="0 0 120 119" fill="none" xmlns="http://www.w3.org/2000/svg">
<path fill-rule="evenodd" clip-rule="evenodd" d="M59.6422 94.1571L77.0329 111.548C86.6376 121.152 102.21 121.152 111.814 111.548C121.419 101.943 121.419 86.3709 111.814 76.7663L94.4237 59.3756L111.814 41.985C121.419 32.3803 121.419 16.8081 111.814 7.2035C102.21 -2.40113 86.6376 -2.4011 77.0329 7.20353L59.6422 24.5942L42.2515 7.20347C32.6469 -2.40115 17.0747 -2.40116 7.47007 7.20346C-2.13455 16.8081 -2.13456 32.3803 7.47007 41.9849L24.8608 59.3756L7.47007 76.7664C-2.13456 86.371 -2.13455 101.943 7.47007 111.548C17.0747 121.152 32.6469 121.152 42.2515 111.548L59.6422 94.1571Z" fill="url(#paint0_linear_202_98)"/>
<defs>
<linearGradient id="paint0_linear_202_98" x1="0.266602" y1="0" x2="45.18" y2="142.091" gradientUnits="userSpaceOnUse">
<stop stop-color="#4FC3F7"/>
<stop offset="1" stop-color="#2979FF"/>
</linearGradient>
</defs>
</svg>
